<mxfile host="app.diagrams.net" modified="2023-10-07T04:18:20.170Z" agent="Mozilla/5.0 (Windows NT 10.0; Win64; x64) AppleWebKit/537.36 (KHTML, like Gecko) Chrome/117.0.0.0 Safari/537.36" version="21.6.8" etag="AP73gWJoj9p0YzjjcwN0" type="github">
  <diagram name="Page-1" id="i4hhbk3-AWrOcgnr5lBT">
    <mxGraphModel>
      <root>
        <mxCell id="0" />
        <mxCell id="1" parent="0" />
      </root>
    </mxGraphModel>
  </diagram>
</mxfile>
